<svg xmlns="http://www.w3.org/2000/svg"><symbol id="001-svg-1" viewBox="0 0 512 512"><circle cx="256" cy="256" r="256" fill="#5ed1b3"/><path d="M510.826 280.437C498.521 410.346 389.133 511.988 256 511.988c-9.241 0-18.359-.494-27.353-1.445l-96.094-96.107 246.895-265.377 131.378 131.378z" fill="#4bc2a2"/><path fill="#f7f7f7" d="M132.553 97.564h195.4l51.494 51.494v265.378H132.553z"/><path fill="#ebecec" d="M353.7 123.311l25.747 25.747v265.378H132.553z"/><path fill="#fad55c" d="M132.553 97.564h195.4l51.494 51.494v24.771H132.553z"/><path fill="#ebecec" d="M327.953 97.564v51.494h51.494z"/><path d="M147.872 144.067l8.809-.877c.531 2.94 1.594 5.102 3.2 6.486 1.618 1.384 3.793 2.076 6.536 2.076 2.891 0 5.078-.618 6.548-1.853 1.47-1.223 2.199-2.656 2.199-4.312 0-1.05-.309-1.952-.927-2.706-.605-.729-1.693-1.384-3.237-1.927-1.05-.371-3.447-1.013-7.19-1.952-4.818-1.211-8.203-2.681-10.156-4.448-2.73-2.471-4.102-5.473-4.102-9.031 0-2.273.655-4.423 1.927-6.412 1.297-1.989 3.15-3.496 5.572-4.534 2.422-1.05 5.35-1.557 8.784-1.557 5.584 0 9.81 1.235 12.626 3.719 2.829 2.496 4.312 5.794 4.46 9.958l-9.068.309c-.383-2.31-1.198-3.966-2.459-4.979-1.26-1.001-3.163-1.52-5.683-1.52-2.607 0-4.645.544-6.103 1.631-.951.692-1.433 1.618-1.433 2.792 0 1.05.445 1.964 1.347 2.718 1.137.964 3.892 1.964 8.278 3.002 4.386 1.038 7.623 2.113 9.711 3.212 2.1 1.124 3.756 2.632 4.942 4.559 1.186 1.927 1.779 4.299 1.779 7.116 0 2.57-.704 4.967-2.137 7.215-1.421 2.236-3.435 3.892-6.041 4.979-2.607 1.1-5.856 1.631-9.735 1.631-5.646 0-9.995-1.297-13.022-3.904-3.028-2.607-4.832-6.412-5.425-11.391zm55.485 14.492l-15.999-44.736h9.785l11.354 33.11 10.909-33.11h9.612l-15.9 44.736h-9.761zm51.025-16.431v-7.561h19.434v17.84c-1.89 1.853-4.621 3.459-8.216 4.868-3.583 1.396-7.215 2.088-10.897 2.088-4.682 0-8.747-.976-12.231-2.94-3.459-1.964-6.078-4.794-7.833-8.451-1.742-3.645-2.619-7.635-2.619-11.935 0-4.67.976-8.809 2.928-12.441 1.952-3.632 4.806-6.424 8.574-8.352 2.866-1.495 6.424-2.224 10.699-2.224 5.547 0 9.884 1.161 13.009 3.496 3.113 2.335 5.127 5.56 6.029 9.674l-9.007 1.693c-.618-2.199-1.804-3.941-3.546-5.214-1.73-1.273-3.892-1.915-6.499-1.915-3.941 0-7.067 1.26-9.39 3.768-2.323 2.508-3.496 6.227-3.496 11.144 0 5.325 1.186 9.315 3.533 11.972 2.372 2.656 5.448 3.978 9.266 3.978 1.89 0 3.781-.371 5.683-1.112 1.903-.741 3.521-1.643 4.892-2.706v-5.671h-10.313z" fill="#fff"/><path d="M201.071 215.761h38.831v-13.009h32.184v13.009h38.831v-13.009h32.196v32.196h-13.009v29.12h13.009v32.184h-13.009v33.345h13.009v32.196h-32.196v-17.235h-38.831v13.009h-32.184v-13.009h-38.831v17.235h-32.196v-32.196h13.009v-33.345h-13.009v-32.184h13.009v-29.12h-13.009v-32.196h32.196v13.009zm109.845 48.307h13.009v-29.12h-13.009v-13.009h-38.831v13.009h-32.184v-13.009H201.07v13.009h-13.009v29.12h13.009v32.184h-13.009v33.345h13.009v8.784h38.831v-12.997h32.184v12.997h38.831v-8.784h13.009v-33.345h-13.009v-32.184z" fill="#666"/></symbol><symbol id="002-svg" viewBox="0 0 512 512"><path d="M494.142 80.275L426.066 9.301a30.308 30.308 0 0 0-12.637-7.857V92.13h87.733a30.119 30.119 0 0 0-7.02-11.855z"/><path d="M398.413 122.148c-8.286 0-15.011-6.715-15.011-15.011 0-.07.01-.14.02-.22-.01-.07-.02-.14-.02-.22V0h-248.52C118.23 0 104.68 13.55 104.68 30.212v69.276h149.041c28.51 0 51.716 23.194 51.716 51.716v99.269c0 28.51-23.207 51.716-51.716 51.716h-149.04v179.609c0 16.652 13.55 30.202 30.202 30.202h337.464c16.652 0 30.202-13.55 30.202-30.202v-359.65H398.413z"/><path d="M238.287 124.74H48.1c-21.315 0-38.648 17.333-38.648 38.648v74.184c0 21.305 17.333 38.648 38.648 38.648h190.187c21.305 0 38.648-17.343 38.648-38.648v-74.184c0-21.315-17.342-38.648-38.648-38.648zM102.275 232.666c-4.729 3.938-10.933 5.905-18.608 5.905-6.65 0-12.441-1.37-17.376-4.112-4.935-2.741-7.401-5.825-7.401-9.254 0-1.918.701-3.838 2.107-5.757 1.403-1.918 3.032-2.879 4.884-2.879 1.028 0 2.175.416 3.443 1.247a24.86 24.86 0 0 1 3.496 2.763c1.062 1.012 2.553 1.932 4.472 2.763a15.067 15.067 0 0 0 6.066 1.247c2.673 0 5.003-.565 6.991-1.696 1.986-1.131 2.981-2.827 2.981-5.089 0-2.262-1.115-4.249-3.341-5.962-2.229-1.712-4.936-3.272-8.122-4.678a129.921 129.921 0 0 1-9.613-4.729c-3.222-1.747-5.946-4.231-8.173-7.453-2.229-3.221-3.341-7.059-3.341-11.514 0-7.266 2.57-12.697 7.711-16.296s11.343-5.398 18.608-5.398c1.781 0 3.65.106 5.604.318 1.954.212 4.147.618 6.58 1.219 2.433.601 4.421 1.571 5.963 2.913 1.542 1.343 2.314 2.967 2.314 4.872 0 1.812-.565 3.692-1.696 5.642s-2.69 2.925-4.678 2.925c-.822 0-2.57-.65-5.243-1.953-2.673-1.301-5.621-1.953-8.842-1.953-3.427 0-5.997.601-7.711 1.799-1.714 1.2-2.57 2.657-2.57 4.37 0 1.577.806 3.017 2.416 4.318 1.61 1.303 3.615 2.416 6.015 3.341 2.398.925 5.021 2.126 7.865 3.599 2.843 1.475 5.465 3.084 7.865 4.832 2.398 1.748 4.402 4.199 6.014 7.351 1.609 3.153 2.416 6.752 2.416 10.796-.002 7.064-2.366 12.566-7.096 16.503zm69.397-62.567l-19.122 62.714c-.55 1.714-1.8 3.033-3.753 3.959-1.953.926-4.199 1.388-6.734 1.388-2.537 0-4.78-.462-6.734-1.388-1.953-.926-3.204-2.245-3.753-3.959l-19.226-62.714c-.138-.547-.205-.926-.205-1.131 0-1.781 1.113-3.323 3.341-4.626 2.227-1.301 4.539-1.953 6.94-1.953 2.946 0 4.693.995 5.243 2.981l14.394 52.742 14.29-52.742c.548-1.987 2.296-2.981 5.243-2.981 2.399 0 4.712.652 6.941 1.953 2.227 1.303 3.341 2.845 3.341 4.626 0 .206-.069.584-.206 1.131zm55.825 43.799c0 8.363-2.298 14.497-6.889 18.403-4.592 3.907-10.728 5.86-18.403 5.86-7.609 0-13.709-1.953-18.3-5.86-4.593-3.907-6.889-10.04-6.889-18.403v-27.246c0-8.361 2.278-14.496 6.837-18.403 4.558-3.907 10.503-5.86 17.838-5.86 7.538 0 13.726 1.817 18.557 5.449 4.832 3.634 7.248 8.636 7.248 15.011 0 2.948-.616 4.953-1.851 6.014-1.233 1.064-3.289 1.593-6.168 1.593-5.278 0-7.952-1.609-8.02-4.833 0-.959-.035-1.764-.103-2.416-.069-.651-.274-1.456-.616-2.417-.344-.959-.823-1.712-1.439-2.262-.616-.547-1.526-1.044-2.725-1.491-1.2-.444-2.622-.667-4.267-.667-6.168 0-9.253 3.427-9.253 10.28v27.246c.002 6.855 3.051 10.281 9.153 10.281 6.168 0 9.253-3.427 9.253-10.28v-3.496h-6.066c-1.508 0-2.69-.599-3.547-1.799-.858-1.199-1.285-2.656-1.285-4.369 0-1.576.444-2.998 1.336-4.267.891-1.268 2.056-1.902 3.496-1.902h17.272c1.507 0 2.69.498 3.548 1.491.856.995 1.285 2.177 1.285 3.547v10.796z"/></symbol><symbol id="003-support" viewBox="0 0 437.2 437.2"><path d="M98.8 217.6c-10.4 0-18.8 8.4-18.8 18.8v112c0 10 8.4 18.8 18.8 18.8s18.8-8.4 18.8-18.8v-112c0-10.4-8.4-18.8-18.8-18.8z"/><path d="M423.2 178.8c-1.2-12-4.4-24-8.4-35.2-4-11.6-9.2-22.4-15.6-32.8-6-10.4-13.2-20.4-20.8-29.6-.8-.8-1.6-1.6-2.8-2.4 1.2-5.6-.4-11.2-4.4-15.6-42-42-97.2-63.2-152-63.2s-110 20.8-152 62.8c-4.4 4.4-5.6 10-4.4 15.6-.8.4-2 1.2-2.8 2.4-8 9.2-14.8 19.2-20.8 29.6-6 10.4-11.2 21.6-15.6 32.8-4 11.6-7.2 23.2-9.6 35.2-2 12-3.2 24-3.2 36v77.2c0 2.8 1.2 5.2 2.8 7.2l1.2 1.2c2 14.8 8.8 27.6 18.4 37.6 7.6 7.6 17.6 13.6 28.4 16.8-.4-2-.8-4.4-.8-6.8v-112c0-2.4.4-4.4.8-6.8-10.8 3.2-20.4 8.8-28.4 16.8l-2.4 2.4v-33.2c0-10.8.8-22 2.8-32.8 2-10.8 4.8-21.6 8.4-31.6 3.6-10.4 8.4-20.4 14-29.6 5.6-9.6 11.6-18.4 18.8-26.8.4-.8 1.2-1.6 1.6-2.4 5.6.8 10.8-.8 14.8-4.8 35.2-35.2 81.6-53.2 128-53.2 46.4 0 92.8 18 128 53.2 4 4 9.2 5.6 14 4.8.4.8.8 1.6 1.6 2.4 7.2 8.4 13.2 17.2 18.8 26.8 5.6 9.6 10 19.6 14 29.6 3.6 10.4 6.4 20.8 8.4 31.6s2.8 21.6 2.8 32.8v33.6l-2.4-2.4c-7.6-7.6-17.6-13.6-28.4-16.8.4 2 .8 4.4.8 6.8v112c0 2.4-.4 4.4-.8 6.8 2.8-.8 6-2 8.8-3.2V388c0 4.4-.4 8-1.2 11.2-.8 2.8-1.6 4.8-3.2 6.4-1.2 1.2-2.8 2.4-4.8 3.2-2 .8-4.8 1.2-7.6.8H259.6c-3.2-6-9.6-10-16.4-10h-47.6c-10.4 0-18.8 8.4-18.8 18.8s8.4 18.8 18.8 18.8h47.2c7.2 0 13.2-4 16.4-10h112c4 0 7.6-.8 10.8-2 4.4-1.6 8.4-4.4 11.6-8 3.2-3.6 5.2-7.6 6.8-12.4s2-10.4 2-16.8v-48.4l1.6-1.6c10-10 16.8-23.2 18.4-37.6l1.2-1.2c2-2 2.8-4.4 2.8-7.2v-77.2c0-12-1.2-24.4-3.2-36z"/><path d="M358.4 348V236c0-10.4-8.4-18.8-18.8-18.8s-18.8 8.4-18.8 18.8v112c0 10.4 8.4 18.8 18.8 18.8 10.4.4 18.8-8.4 18.8-18.8z"/></symbol></svg>